HIERARCHY
ROOT Hips
{
 OFFSET 0.000000 0.000000 0.000000
 CHANNELS 6 Xposition Yposition Zposition Yrotation Xrotation Zrotation
 JOINT Chest
 {
  OFFSET 0.000000 9.876138 0.000104
  CHANNELS 3 Yrotation Xrotation Zrotation
  JOINT Chest2
  {
   OFFSET 0.000000 10.876137 -0.000189
   CHANNELS 3 Yrotation Xrotation Zrotation
   JOINT Chest3
   {
    OFFSET 0.000000 9.827065 0.000000
    CHANNELS 3 Yrotation Xrotation Zrotation
    JOINT Chest4
    {
     OFFSET 0.000000 9.827065 0.000000
     CHANNELS 3 Yrotation Xrotation Zrotation
     JOINT Neck
     {
      OFFSET 0.000000 13.837564 0.000000
      CHANNELS 3 Yrotation Xrotation Zrotation
      JOINT Head
      {
       OFFSET 0.000000 9.147059 -0.000448
       CHANNELS 3 Yrotation Xrotation Zrotation
       End Site
       {
        OFFSET 0.000000 17.513050 -0.000234
       }
      }
     }
     JOINT RightCollar
     {
      OFFSET -3.007721 7.720841 0.000000
      CHANNELS 3 Yrotation Xrotation Zrotation
      JOINT RightShoulder
      {
       OFFSET -14.032560 0.000000 0.000000
       CHANNELS 3 Yrotation Xrotation Zrotation
       JOINT RightElbow
       {
        OFFSET -30.066960 0.000000 0.000000
        CHANNELS 3 Yrotation Xrotation Zrotation
        JOINT RightWrist
        {
         OFFSET -24.575760 0.000000 0.000000
         CHANNELS 3 Yrotation Xrotation Zrotation
         JOINT Prop1
         {
          OFFSET -3.508170 -1.002334 -2.004669
          CHANNELS 3 Yrotation Xrotation Zrotation
          End Site
          {
           OFFSET -75.170726 -33.091210 23.052386
          }
         }
         End Site
         {
          OFFSET -18.342717 0.000000 0.000000
         }
        }
       }
      }
     }
     JOINT LeftCollar
     {
      OFFSET 3.007721 7.720841 0.000000
      CHANNELS 3 Yrotation Xrotation Zrotation
      JOINT LeftShoulder
      {
       OFFSET 14.032560 0.000000 0.000000
       CHANNELS 3 Yrotation Xrotation Zrotation
       JOINT LeftElbow
       {
        OFFSET 30.066960 0.000000 0.000000
        CHANNELS 3 Yrotation Xrotation Zrotation
        JOINT LeftWrist
        {
         OFFSET 24.575760 0.000000 -0.000000
         CHANNELS 3 Yrotation Xrotation Zrotation
         End Site
         {
          OFFSET 18.342717 0.000000 0.000000
         }
        }
       }
      }
     }
    }
   }
  }
 }
 JOINT RightHip
 {
  OFFSET -8.019680 -0.000509 -0.000052
  CHANNELS 3 Yrotation Xrotation Zrotation
  JOINT RightKnee
  {
   OFFSET 0.000000 -41.754945 0.000049
   CHANNELS 3 Yrotation Xrotation Zrotation
   JOINT RightAnkle
   {
    OFFSET 0.000000 -40.737371 0.000083
    CHANNELS 3 Yrotation Xrotation Zrotation
    JOINT RightToe
    {
     OFFSET 0.000000 -6.498123 14.692914
     CHANNELS 3 Yrotation Xrotation Zrotation
     End Site
     {
      OFFSET 0.000000 -1.503208 6.410318
     }
    }
   }
  }
 }
 JOINT LeftHip
 {
  OFFSET 8.019680 -0.000509 -0.000052
  CHANNELS 3 Yrotation Xrotation Zrotation
  JOINT LeftKnee
  {
   OFFSET 0.000000 -41.754945 0.000049
   CHANNELS 3 Yrotation Xrotation Zrotation
   JOINT LeftAnkle
   {
    OFFSET 0.000000 -40.737371 0.000083
    CHANNELS 3 Yrotation Xrotation Zrotation
    JOINT LeftToe
    {
     OFFSET 0.000000 -6.498123 14.692914
     CHANNELS 3 Yrotation Xrotation Zrotation
     End Site
     {
      OFFSET 0.000000 -1.503208 6.410318
     }
    }
   }
  }
 }
}
MOTION
Frames: 8
Frame Time: 0.016667
5.934993 64.457825 52.686842 -111.760183 16.680508 2.526645 -9.486823 15.112906 10.865672 -1.022020 1.517401 1.913290 -1.022020 1.517401 1.913290 -0.771231 1.134868 1.437426 -21.649601 0.545176 6.898483 -49.154276 -27.899725 27.060091 5.795889 -16.507885 -22.655409 37.249823 -60.715506 -15.310552 -34.196781 25.036546 -24.378663 -39.900969 3.424809 3.456528 -11.833199 0.711173 -95.783109 -0.296401 -21.586884 -25.123738 43.951221 -12.213910 -44.158072 1.838381 2.213615 -0.381376 1.667287 -9.950767 10.275406 3.261446 -80.207074 -42.345478 -55.961158 55.021263 -56.855977 13.960685 4.998262 5.414805 -1.559721 -12.198084 -2.145678 2.271962 -18.268066 45.406557 8.422616 31.744439 -1.369432 -8.566188 -10.886193 -23.402560 0.328071 -9.038555 -16.267114
5.565119 64.751595 50.681377 -115.385813 10.893835 2.564527 -6.850327 15.923523 8.543482 -0.722982 3.358341 1.839451 -0.722982 3.358341 1.839451 -0.552205 2.516612 1.383172 -22.359531 0.561070 7.067277 -50.594288 -27.454139 27.657975 6.242906 -17.325572 -21.779286 31.309180 -63.682722 -12.677321 -36.141184 31.005397 -28.014066 -40.248693 1.408030 7.109976 -11.689042 0.382396 -94.555585 -2.559704 -19.559454 -24.758406 44.039069 -12.730938 -45.112858 1.769525 2.059804 -0.623789 2.574047 -9.540298 10.271768 11.403014 -73.889606 -46.607350 -57.257008 59.888824 -56.612225 7.172734 4.479139 3.240665 0.743321 -12.312099 -0.994307 5.683251 -11.629483 44.786187 6.300623 32.956347 -2.957720 -4.908114 -9.450322 -22.412607 -2.218832 -12.054351 -17.814358
5.390450 65.221415 49.112169 -118.432378 6.423933 3.272868 -4.584455 15.282386 6.482143 -0.513718 5.253011 1.797269 -0.513718 5.253011 1.797269 -0.400509 3.938293 1.351433 -22.907790 0.649993 7.227828 -51.660804 -26.960257 28.114601 6.150241 -19.495181 -20.652286 25.319579 -58.200446 -8.441714 -33.645445 25.565715 -23.995182 -39.912890 2.057807 5.555492 -11.024614 1.165868 -95.477489 -3.792975 -20.018565 -24.456388 44.019107 -10.530252 -44.632518 1.223247 0.850210 -0.476890 3.182304 -9.386017 11.294584 14.724203 -69.286459 -47.040938 -60.284853 60.598845 -58.729811 7.029493 4.630801 2.590393 0.990645 -12.600484 -0.772454 8.190309 -6.527834 44.323072 2.343253 33.228524 -5.428878 -2.273935 -8.516172 -23.172208 -2.128318 -13.404702 -17.417655
5.707003 65.116471 48.287597 -120.352406 7.488669 3.674216 -3.340025 14.199281 5.317430 -0.200691 5.447616 1.938293 -0.200691 5.447616 1.938293 -0.167730 4.085125 1.454416 -22.943768 0.691407 7.382302 -51.768283 -26.792315 28.391669 6.088147 -20.626836 -20.105269 23.534449 -54.110490 -7.676313 -32.138141 19.307081 -19.528478 -39.333759 2.802435 3.905574 -9.231553 2.655021 -96.300253 -3.822851 -19.797067 -24.149308 43.561570 -8.725436 -45.088159 0.563609 0.550606 0.145854 3.226052 -10.329331 12.159183 19.081427 -71.362859 -49.494237 -64.031938 59.365057 -62.932549 9.592198 4.895962 2.584308 0.428337 -12.331753 -0.776545 10.343157 -7.424542 43.297063 -0.592195 32.948763 -6.563388 0.009769 -10.257194 -25.306781 -1.499430 -10.844696 -15.987257
6.236022 64.697950 47.617740 -120.156951 8.367260 4.322814 -3.238768 14.566836 5.117827 -0.151038 4.979112 1.727511 -0.151038 4.979112 1.727511 -0.127314 3.733943 1.296050 -22.918929 0.859331 7.526186 -51.667734 -26.448069 28.536596 3.178972 -18.624626 -19.060705 25.615438 -59.526532 -9.722709 -31.305971 16.861454 -17.487953 -38.831863 5.434013 0.069998 -6.727024 3.314424 -96.394456 -3.831999 -20.050115 -23.453352 43.280873 -7.295611 -44.954073 0.303212 0.605697 0.319759 2.661839 -11.006389 12.956144 22.125446 -73.673671 -52.670613 -68.021130 58.652697 -67.625500 11.140575 3.636368 2.158464 0.191535 -11.013261 -0.586396 11.092617 -8.408360 42.243288 -0.001061 32.318797 -5.398094 0.039097 -12.465937 -27.696671 -1.059185 -6.639910 -11.453860
6.600315 64.219782 46.650872 -120.487760 7.746360 3.990713 -2.962334 15.132998 5.403888 0.147455 4.845924 1.498157 0.147455 4.845924 1.498157 0.098621 3.634831 1.121775 -23.076153 1.136699 7.589820 -51.808541 -25.875755 28.522785 -1.729305 -14.273591 -17.815240 31.983911 -69.969621 -14.707088 -31.002691 20.010259 -19.212315 -38.341929 7.038109 -0.934180 -4.897163 3.785159 -96.967470 -4.599292 -20.694453 -22.350176 43.872279 -6.478107 -44.219103 0.659518 1.191980 0.429288 1.986291 -10.866910 12.730625 19.961289 -74.223178 -50.028636 -71.030083 58.900737 -70.935764 10.596722 1.538465 1.500921 0.396999 -9.273436 -0.286427 12.063559 -7.844060 42.602099 2.182013 31.779582 -3.580991 -0.848962 -14.017248 -29.834397 -0.772824 -3.308343 -8.169334
6.720532 63.984593 45.531159 -122.814268 7.116640 3.806984 -1.085783 14.881584 4.778690 0.841074 4.944341 1.305909 0.841074 4.944341 1.305909 0.619829 3.710080 0.972006 -23.745553 1.539900 7.665764 -52.847581 -24.839417 28.630426 -6.438780 -11.671993 -16.015127 38.401546 -75.611797 -19.687429 -31.738894 25.541989 -20.894765 -37.551315 5.326473 1.512211 -3.582213 4.454044 -97.929087 -7.656527 -19.419990 -20.389985 45.085323 -6.496604 -44.158011 0.787839 0.973662 0.225865 1.750023 -10.243538 11.985704 20.760987 -73.943308 -48.261825 -72.874277 59.189791 -72.755995 10.035555 0.218473 1.066163 0.209519 -7.997799 -0.176442 14.668957 -6.609805 42.669005 3.508978 31.089723 -2.406484 -1.100123 -13.707907 -31.396988 -0.542939 -2.149879 -5.972899
6.960854 63.889316 44.579736 -123.765843 7.893900 4.440808 -0.046349 13.821663 4.530205 0.825491 4.842656 1.275604 0.825491 4.842656 1.275604 0.608623 3.633740 0.949580 -24.075904 1.674058 7.477353 -53.310231 -24.556879 28.303255 -7.173257 -12.580236 -15.484814 35.779868 -74.900809 -17.192395 -30.475700 26.535865 -20.229388 -37.582113 5.638812 3.083541 -2.091917 5.463670 -98.260838 -9.304144 -17.472456 -19.615362 45.675371 -5.858659 -45.015392 0.399765 -0.591105 0.398556 2.209512 -10.171791 11.719658 24.582806 -74.573823 -50.846315 -73.763546 60.107148 -73.723907 8.718503 -0.626348 0.825685 0.119914 -7.039217 -0.081663 15.639692 -6.397677 41.646898 3.792639 30.176168 -1.857134 -0.601289 -12.566475 -32.417206 -0.024192 -1.955913 -4.505365
